<svg aria-hidden="true" style="position: absolute; width: 0; height: 0; overflow: hidden;" version="1.1" xmlns="http://www.w3.org/2000/svg" xmlns:xlink="http://www.w3.org/1999/xlink">
<defs>
<symbol id="icon-normal-favorite" viewBox="0 0 32 32">
<path d="M9.645 4.005c-3.536 0-6.979 2.439-6.979 6.903 0 4.967 5.793 10.303 12.404 16.72 0.259 0.252 0.595 0.377 0.929 0.377s0.671-0.125 0.929-0.377c6.636-6.441 12.404-11.752 12.404-16.72 0-4.471-3.44-6.891-6.972-6.891-2.448 0-4.861 1.155-6.361 3.405-1.507-2.261-3.913-3.417-6.355-3.417zM9.645 6.005c2.653 0.001 4.269 1.804 5.54 3.6 0.187 0.264 0.491 0.421 0.815 0.423 0.324 0 0.628-0.156 0.816-0.419 1.273-1.785 2.92-3.592 5.545-3.592 2.395 0 4.972 1.531 4.972 4.891 0 3.561-3.841 7.564-11.333 14.836-7.272-7.047-11.333-11.185-11.333-14.836 0-1.5 0.519-2.759 1.499-3.636 0.897-0.805 2.167-1.267 3.48-1.267z"></path>
</symbol>
<symbol id="icon-active-favorite" viewBox="0 0 32 32">
<path d="M16 7.627c-3.499-6.023-13.333-4.264-13.333 3.281 0 4.967 5.793 10.303 12.404 16.72 0.259 0.252 0.595 0.377 0.929 0.377s0.671-0.125 0.929-0.377c6.636-6.441 12.404-11.752 12.404-16.72 0-7.571-9.861-9.259-13.333-3.281z"></path>
</symbol>
<symbol id="icon-close" viewBox="0 0 32 32">
<path d="M25.988 4.647c-0.366 0.009-0.695 0.164-0.931 0.41l-9.058 9.058-9.057-9.057c-0.243-0.249-0.581-0.404-0.956-0.404-0 0-0.001 0-0.001 0h0c-0.736 0.001-1.332 0.598-1.332 1.333 0 0.375 0.154 0.713 0.403 0.955l9.058 9.058-9.057 9.057c-0.253 0.243-0.41 0.584-0.41 0.962 0 0.736 0.597 1.333 1.333 1.333 0.378 0 0.719-0.157 0.961-0.41l0-0 9.057-9.057 9.057 9.057c0.243 0.253 0.584 0.41 0.962 0.41 0.736 0 1.333-0.597 1.333-1.333 0-0.378-0.157-0.719-0.41-0.961l-0-0-9.057-9.057 9.057-9.057c0.253-0.243 0.411-0.584 0.411-0.962 0-0.736-0.597-1.333-1.333-1.333-0.011 0-0.022 0-0.033 0l0.002-0z"></path>
</symbol>
</defs>
</svg>